<svg width="18" height="17" viewBox="0 0 18 17" fill="none" xmlns="http://www.w3.org/2000/svg">
<path d="M2.81326 4.18678H2.83308C3.55467 4.18678 4.14145 3.6 4.14145 2.87841V2.44228C4.14145 1.7207 3.55467 1.13391 2.83308 1.13391H2.81326C2.09167 1.13391 1.50488 1.7207 1.50488 2.44228V2.87841C1.50488 3.6 2.09167 4.18678 2.81326 4.18678ZM2.05995 2.44228C2.05995 2.02598 2.39696 1.68898 2.81326 1.68898H2.83308C3.24938 1.68898 3.58639 2.02598 3.58639 2.44228V2.87841C3.58639 3.29471 3.24938 3.63172 2.83308 3.63172H2.81326C2.39696 3.63172 2.05995 3.29471 2.05995 2.87841V2.44228Z" fill="white"/>
<path d="M4.3632 4.60303H3.81607C3.7447 4.60303 3.6773 4.63078 3.62576 4.67836L2.86452 5.39201L2.13104 4.67836C2.0795 4.62681 2.00813 4.59906 1.93677 4.59906H1.35791C0.973326 4.59906 0.608568 4.76162 0.350858 5.04708C0.0971124 5.32858 -0.0297602 5.70523 0.00592268 6.08188V9.26559C0.00592268 9.49158 0.0931476 9.70568 0.255703 9.86824C0.418259 10.0308 0.628391 10.118 0.858348 10.118C0.862313 10.118 0.866278 10.118 0.870242 10.118C0.989185 10.118 1.1002 10.0903 1.19932 10.0467L1.34601 15.8075C1.36187 16.2951 1.75835 16.6757 2.24602 16.6757C2.48787 16.6757 2.70593 16.5806 2.86849 16.426C3.03104 16.5806 3.2491 16.6757 3.49095 16.6757C3.97862 16.6757 4.37113 16.2951 4.39096 15.8075L4.53765 10.0546C4.64074 10.0982 4.75572 10.122 4.87069 10.122C5.33854 10.122 5.72312 9.74137 5.72312 9.26956V6.08585C5.7588 5.7092 5.63193 5.33254 5.37818 5.05104C5.11255 4.76558 4.74779 4.60303 4.3632 4.60303ZM3.48302 16.1207C3.29272 16.1207 3.13809 15.9661 3.13809 15.7757V10.007H2.58302V15.7757C2.58302 15.9661 2.4284 16.1207 2.23809 16.1207C2.05174 16.1207 1.90108 15.974 1.89315 15.7916L1.72663 9.28145H3.99051L3.82399 15.7876C3.82399 15.974 3.67333 16.1207 3.48302 16.1207ZM5.16409 6.04224C5.16409 6.05017 5.16409 6.06206 5.16409 6.06999V9.26956C5.16409 9.43211 5.02928 9.56692 4.86673 9.56692C4.78743 9.56692 4.7121 9.5352 4.6566 9.47969C4.60109 9.42418 4.56937 9.34885 4.56937 9.26956V8.59158L4.57334 8.46471H4.56937V7.13255H4.0143V8.58762L4.01034 8.73035H1.7187L1.71077 8.45282H1.70681V7.13255H1.15174V9.25766C1.15174 9.42815 1.0209 9.56692 0.858348 9.57088C0.779053 9.57088 0.703722 9.53916 0.64425 9.48366C0.588744 9.42815 0.557025 9.35282 0.557025 9.27352V6.07395C0.557025 6.06602 0.557025 6.05413 0.557025 6.0462C0.533237 5.81624 0.604603 5.59818 0.759229 5.4277C0.913855 5.25721 1.12399 5.16206 1.35394 5.16206H1.82179L2.66232 5.9788L2.66628 5.98276C2.67421 5.99069 2.68214 5.99862 2.69404 6.00655C2.69404 6.00655 2.69404 6.00655 2.698 6.00655C2.70989 6.01448 2.71782 6.01845 2.72972 6.02638C2.73368 6.02638 2.73368 6.03034 2.73765 6.03034C2.74954 6.03431 2.75747 6.03827 2.76937 6.04224C2.76937 6.04224 2.76937 6.04224 2.77333 6.04224C2.78523 6.0462 2.79712 6.05017 2.80901 6.05017C2.81298 6.05017 2.81298 6.05017 2.81694 6.05017C2.82884 6.05017 2.83677 6.05413 2.84866 6.05413H2.85263C2.86452 6.05413 2.87642 6.05413 2.88831 6.05413C2.89227 6.05413 2.89227 6.05413 2.89624 6.05413C2.90813 6.05413 2.92003 6.05017 2.93192 6.0462C2.94382 6.04224 2.95571 6.03827 2.9676 6.03431C2.9676 6.03431 2.9676 6.03431 2.97157 6.03431C2.97157 6.03431 2.97157 6.03431 2.97553 6.03431C2.99932 6.02638 3.01915 6.01052 3.03897 5.99466C3.04294 5.99069 3.04294 5.99069 3.0469 5.98673C3.05086 5.98276 3.05086 5.98276 3.05483 5.9788L3.93104 5.15809H4.36717C4.59712 5.15809 4.80726 5.25325 4.96188 5.42373C5.11651 5.59422 5.18788 5.81624 5.16409 6.04224Z" fill="white"/>
<path d="M15.0916 4.18678H15.1114C15.833 4.18678 16.4198 3.6 16.4198 2.87841V2.44228C16.4198 1.7207 15.833 1.13391 15.1114 1.13391H15.0916C14.37 1.13391 13.7832 1.7207 13.7832 2.44228V2.87841C13.7832 3.6 14.37 4.18678 15.0916 4.18678ZM14.3383 2.44228C14.3383 2.02598 14.6753 1.68898 15.0916 1.68898H15.1114C15.5277 1.68898 15.8647 2.02598 15.8647 2.44228V2.87841C15.8647 3.29471 15.5277 3.63172 15.1114 3.63172H15.0916C14.6753 3.63172 14.3383 3.29471 14.3383 2.87841V2.44228Z" fill="white"/>
<path d="M16.6377 4.60303H16.0905C16.0192 4.60303 15.9518 4.63078 15.9002 4.67836L15.139 5.39201L14.4055 4.67836C14.354 4.62681 14.2826 4.59906 14.2112 4.59906H13.6284C13.2438 4.59906 12.8791 4.76162 12.6214 5.04708C12.3676 5.32858 12.2407 5.70523 12.2764 6.08188V9.26559C12.2764 9.49158 12.3637 9.70568 12.5262 9.86824C12.6888 10.0308 12.8989 10.118 13.1289 10.118C13.1328 10.118 13.1368 10.118 13.1407 10.118C13.2597 10.118 13.3707 10.0903 13.4698 10.0467L13.6165 15.8075C13.6324 16.2951 14.0289 16.6757 14.5165 16.6757C14.7584 16.6757 14.9764 16.5806 15.139 16.426C15.3015 16.5806 15.5196 16.6757 15.7615 16.6757C16.2491 16.6757 16.6416 16.2951 16.6615 15.8075L16.8082 10.0546C16.9112 10.0982 17.0262 10.122 17.1412 10.122C17.609 10.122 17.9936 9.74137 17.9936 9.26956V6.08585C18.0293 5.7092 17.9024 5.33254 17.6487 5.05104C17.391 4.76558 17.0223 4.60303 16.6377 4.60303ZM15.7615 16.1207C15.5712 16.1207 15.4165 15.9661 15.4165 15.7757V10.007H14.8615V15.7757C14.8615 15.9661 14.7068 16.1207 14.5165 16.1207C14.3302 16.1207 14.1795 15.974 14.1716 15.7916L14.0051 9.28145H16.269L16.1024 15.7876C16.0985 15.974 15.9478 16.1207 15.7615 16.1207ZM17.4386 6.04224C17.4386 6.05017 17.4386 6.06206 17.4386 6.06999V9.26956C17.4386 9.43211 17.3038 9.56692 17.1412 9.56692C17.0619 9.56692 16.9866 9.5352 16.9311 9.47969C16.8756 9.42418 16.8438 9.34885 16.8438 9.26956V8.59158L16.8478 8.46471H16.8438V7.13255H16.2888V8.58762L16.2848 8.73035H13.9932L13.9852 8.45282H13.9813V7.13255H13.4262V9.25766C13.4262 9.42815 13.2954 9.56692 13.1328 9.57088C13.0535 9.57088 12.9782 9.53916 12.9187 9.48366C12.8632 9.42815 12.8315 9.35282 12.8315 9.27352V6.07395C12.8315 6.06602 12.8315 6.05413 12.8315 6.0462C12.8077 5.81624 12.8791 5.59818 13.0337 5.4277C13.1883 5.25721 13.3985 5.16206 13.6284 5.16206H14.0963L14.9368 5.9788L14.9408 5.98276C14.9487 5.99069 14.9566 5.99862 14.9685 6.00655C14.9804 6.01448 14.9883 6.01845 15.0002 6.02638C15.0042 6.02638 15.0042 6.03034 15.0082 6.03034C15.0201 6.03431 15.028 6.03827 15.0399 6.04224C15.0399 6.04224 15.0399 6.04224 15.0438 6.04224C15.0557 6.0462 15.0676 6.05017 15.0795 6.05017C15.0835 6.05017 15.0835 6.05017 15.0875 6.05017C15.0993 6.05017 15.1073 6.05413 15.1192 6.05413H15.1231C15.135 6.05413 15.1469 6.05413 15.1588 6.05413C15.1628 6.05413 15.1628 6.05413 15.1667 6.05413C15.1786 6.05413 15.1905 6.05017 15.2024 6.0462C15.2143 6.04224 15.2262 6.03827 15.2381 6.03431C15.2381 6.03431 15.2381 6.03431 15.2421 6.03431C15.2421 6.03431 15.2421 6.03431 15.246 6.03431C15.2698 6.02638 15.2897 6.01052 15.3095 5.99466C15.3134 5.99069 15.3134 5.99069 15.3174 5.98673C15.3214 5.98276 15.3214 5.98276 15.3253 5.9788L16.2016 5.15809H16.6377C16.8676 5.15809 17.0778 5.25325 17.2324 5.42373C17.391 5.59422 17.4623 5.81624 17.4386 6.04224Z" fill="white"/>
<path d="M8.95095 4.18678H8.97078C9.69236 4.18678 10.2791 3.6 10.2791 2.87841V2.44228C10.2791 1.7207 9.69236 1.13391 8.97078 1.13391H8.95095C8.22936 1.13391 7.64258 1.7207 7.64258 2.44228V2.87841C7.64258 3.6 8.22936 4.18678 8.95095 4.18678ZM8.19765 2.44228C8.19765 2.02598 8.53465 1.68898 8.95095 1.68898H8.97078C9.38708 1.68898 9.72408 2.02598 9.72408 2.44228V2.87841C9.72408 3.29471 9.38708 3.63172 8.97078 3.63172H8.95095C8.53465 3.63172 8.19765 3.29471 8.19765 2.87841V2.44228Z" fill="white"/>
<path d="M10.501 4.60303H9.95382C9.88245 4.60303 9.81505 4.63078 9.76351 4.67836L9.00228 5.39201L8.26879 4.67836C8.21725 4.62681 8.14588 4.59906 8.07452 4.59906H7.4917C7.10712 4.59906 6.74236 4.76162 6.48465 5.04708C6.2309 5.32858 6.10403 5.70523 6.13971 6.08188V9.26559C6.13971 9.49158 6.22694 9.70568 6.38949 9.86824C6.55205 10.0308 6.76218 10.118 6.99214 10.118C6.9961 10.118 7.00007 10.118 7.00403 10.118C7.12297 10.118 7.23399 10.0903 7.33311 10.0467L7.4798 15.8075C7.49566 16.2951 7.89214 16.6757 8.37981 16.6757C8.62166 16.6757 8.83972 16.5806 9.00228 16.426C9.16483 16.5806 9.38289 16.6757 9.62474 16.6757C10.1124 16.6757 10.5049 16.2951 10.5247 15.8075L10.6714 10.0546C10.7745 10.0982 10.8895 10.122 11.0045 10.122C11.4723 10.122 11.8569 9.74137 11.8569 9.26956V6.08585C11.8926 5.7092 11.7657 5.33254 11.512 5.05104C11.2543 4.76558 10.8855 4.60303 10.501 4.60303ZM9.62474 16.1207C9.43443 16.1207 9.27981 15.9661 9.27981 15.7757V10.007H8.72474V15.7757C8.72474 15.9661 8.57012 16.1207 8.37981 16.1207C8.19346 16.1207 8.0428 15.974 8.03487 15.7916L7.86835 9.28145H10.1322L9.96571 15.7876C9.96175 15.974 9.81109 16.1207 9.62474 16.1207ZM11.3018 6.04224C11.3018 6.05017 11.3018 6.06206 11.3018 6.06999V9.26956C11.3018 9.43211 11.167 9.56692 11.0045 9.56692C10.9252 9.56692 10.8499 9.5352 10.7944 9.47969C10.7388 9.42418 10.7071 9.34885 10.7071 9.26956V8.59158L10.7111 8.46471H10.7071V7.13255H10.1521V8.58762L10.1481 8.73035H7.85646L7.84853 8.45282H7.84456V7.13255H7.28949V9.25766C7.28949 9.42815 7.15866 9.56692 6.9961 9.57088C6.91681 9.57088 6.84148 9.53916 6.782 9.48366C6.7265 9.42815 6.69478 9.35282 6.69478 9.27352V6.07395C6.69478 6.06602 6.69478 6.05413 6.69478 6.0462C6.67099 5.81624 6.74236 5.59818 6.89698 5.4277C7.05161 5.25721 7.26174 5.16206 7.4917 5.16206H7.95954L8.80007 5.9788L8.80404 5.98276C8.81197 5.99069 8.8199 5.99862 8.83179 6.00655C8.83179 6.00655 8.83179 6.00655 8.83575 6.00655C8.84765 6.01448 8.85558 6.01845 8.86747 6.02638C8.87144 6.02638 8.87144 6.03034 8.8754 6.03034C8.8873 6.03431 8.89523 6.03827 8.90712 6.04224C8.90712 6.04224 8.90712 6.04224 8.91109 6.04224C8.92298 6.0462 8.93487 6.05017 8.94677 6.05017C8.95073 6.05017 8.95073 6.05017 8.9547 6.05017C8.96659 6.05017 8.97452 6.05413 8.98642 6.05413H8.99038C9.00228 6.05413 9.01417 6.05413 9.02606 6.05413C9.03003 6.05413 9.03003 6.05413 9.03399 6.05413C9.04589 6.05413 9.05778 6.05017 9.06968 6.0462C9.08157 6.04224 9.09347 6.03827 9.10536 6.03431C9.10536 6.03431 9.10536 6.03431 9.10932 6.03431C9.10932 6.03431 9.10932 6.03431 9.11329 6.03431C9.13708 6.02638 9.1569 6.01052 9.17673 5.99466C9.18069 5.99069 9.18069 5.99069 9.18466 5.98673C9.18862 5.98276 9.18862 5.98276 9.19258 5.9788L10.0688 5.15809H10.5049C10.7349 5.15809 10.945 5.25325 11.0996 5.42373C11.2503 5.59422 11.3256 5.81624 11.3018 6.04224Z" fill="white"/>
<path d="M7.24595 1.7445V1.30837C7.24595 0.586786 6.65916 0 5.93757 0H5.91775C5.19616 0 4.60938 0.586786 4.60938 1.30837V1.7445C4.60938 2.46609 5.19616 3.05287 5.91775 3.05287H5.93757C6.65916 3.05287 7.24595 2.46609 7.24595 1.7445ZM6.69088 1.7445C6.69088 2.1608 6.35387 2.4978 5.93757 2.4978H5.91775C5.50145 2.4978 5.16444 2.1608 5.16444 1.7445V1.30837C5.16444 0.892073 5.50145 0.555068 5.91775 0.555068H5.93757C6.35387 0.555068 6.69088 0.892073 6.69088 1.30837V1.7445Z" fill="white"/>
<path d="M13.3866 1.7445V1.30837C13.3866 0.586786 12.7998 0 12.0782 0H12.0584C11.3368 0 10.75 0.586786 10.75 1.30837V1.7445C10.75 2.46609 11.3368 3.05287 12.0584 3.05287H12.0782C12.7958 3.05287 13.3866 2.46609 13.3866 1.7445ZM12.8315 1.7445C12.8315 2.1608 12.4945 2.4978 12.0782 2.4978H12.0584C11.6421 2.4978 11.3051 2.1608 11.3051 1.7445V1.30837C11.3051 0.892073 11.6421 0.555068 12.0584 0.555068H12.0782C12.4945 0.555068 12.8315 0.892073 12.8315 1.30837V1.7445Z" fill="white"/>
</svg>