<svg width="20" height="16" viewBox="0 0 20 16" fill="none" xmlns="http://www.w3.org/2000/svg">
<path d="M19.0342 2.60736V2.60677C19.0342 2.59049 19.0342 2.57368 19.0339 2.55679V2.55673C19.0165 1.65213 18.269 0.932906 17.3644 0.950309L14.1377 1.0124L14.1372 1.0124L2.35298 1.01235C1.57814 1.01235 0.95 1.64048 0.95 2.41533V13.8422C0.95 14.6171 1.57814 15.2452 2.35298 15.2452H17.5888C18.3637 15.2452 18.9918 14.6171 18.9918 13.8422L18.9918 6.22693L18.9918 6.22634L19.0342 2.60736ZM14.1428 1.64177L14.1437 1.64175L17.3765 1.5796C17.9164 1.56922 18.3654 1.98495 18.4023 2.51769C18.4023 2.51795 18.4023 2.51822 18.4024 2.51848L18.4047 2.58482L18.3624 6.22267V6.22325L18.3624 13.8422C18.3624 14.2694 18.0161 14.6158 17.5888 14.6158H2.35298C1.92575 14.6158 1.57941 14.2694 1.57941 13.8422V2.41533C1.57941 1.9881 1.92575 1.64176 2.35298 1.64176L14.1428 1.64177Z" fill="white" stroke="white" stroke-width="0.1"/>
<path d="M17.3668 5.65071C17.3668 5.03833 16.8703 4.54189 16.2579 4.54189H6.94872C6.33633 4.54189 5.83989 5.03833 5.83989 5.65071V7.88616C5.83989 8.49855 6.33633 8.99499 6.94872 8.99499H16.2579C16.8703 8.99499 17.3668 8.49855 17.3668 7.88616V5.65071ZM6.94872 5.1713H16.257L16.2947 5.17268C16.5423 5.19141 16.7374 5.3983 16.7374 5.65071V7.88526L16.736 7.92287C16.7173 8.17047 16.5104 8.36557 16.2579 8.36557H6.94964L6.91199 8.36419C6.6644 8.34546 6.4693 8.13857 6.4693 7.88616V5.65163L6.47069 5.61398C6.48942 5.3664 6.69631 5.1713 6.94872 5.1713Z" fill="white" stroke="white" stroke-width="0.1"/>
<path d="M11.3813 10.5479C11.3813 9.93554 10.8848 9.43911 10.2724 9.43911H6.94872C6.33633 9.43911 5.83989 9.93554 5.83989 10.5479V12.7834C5.83989 13.3958 6.33633 13.8922 6.94872 13.8922H10.2724C10.8848 13.8922 11.3813 13.3958 11.3813 12.7834V10.5479ZM6.94872 10.0685H10.2715L10.3092 10.0699C10.5568 10.0886 10.7519 10.2955 10.7519 10.5479V12.7825L10.7505 12.8201C10.7317 13.0677 10.5248 13.2628 10.2724 13.2628H6.94964L6.91199 13.2614C6.6644 13.2427 6.4693 13.0358 6.4693 12.7834V10.5488L6.47069 10.5112C6.48942 10.2636 6.69631 10.0685 6.94872 10.0685Z" fill="white" stroke="white" stroke-width="0.1"/>
<path d="M17.3667 10.5479C17.3667 9.93554 16.8703 9.43911 16.2579 9.43911H12.9342C12.3218 9.43911 11.8254 9.93554 11.8254 10.5479V12.7834C11.8254 13.3958 12.3218 13.8922 12.9342 13.8922H16.2579C16.8703 13.8922 17.3667 13.3958 17.3667 12.7834V10.5479ZM12.9342 10.0685H16.257L16.2946 10.0699C16.5422 10.0886 16.7373 10.2955 16.7373 10.5479V12.7825L16.7359 12.8201C16.7172 13.0677 16.5103 13.2628 16.2579 13.2628H12.9351L12.8975 13.2614C12.6499 13.2427 12.4548 13.0358 12.4548 12.7834V10.5488L12.4562 10.5112C12.4749 10.2636 12.6818 10.0685 12.9342 10.0685Z" fill="white" stroke="white" stroke-width="0.1"/>
<path d="M18.769 3.6124L18.769 3.61248L18.7719 3.61215C18.9285 3.59396 19.05 3.46098 19.05 3.29956C19.05 3.12575 18.9091 2.98485 18.7353 2.98485H1.46875V2.98477L1.46587 2.98493L1.435 2.98671L1.43499 2.98663L1.43211 2.98697C1.27554 3.00515 1.15404 3.13813 1.15404 3.29956C1.15404 3.47336 1.29494 3.61426 1.46875 3.61426H18.7353V3.61435L18.7382 3.61418L18.769 3.6124Z" fill="white" stroke="white" stroke-width="0.1"/>
<path d="M5.04642 3.26581L5.0465 3.2658L5.04617 3.26292C5.02798 3.10635 4.89501 2.98485 4.73358 2.98485C4.55977 2.98485 4.41887 3.12575 4.41887 3.29956V14.5904H4.41879L4.41896 14.5933L4.42074 14.6242L4.42065 14.6242L4.42099 14.627C4.43917 14.7836 4.57215 14.9051 4.73358 14.9051C4.90739 14.9051 5.04828 14.7642 5.04828 14.5904V3.29956H5.04837L5.0482 3.29668L5.04642 3.26581Z" fill="white" stroke="white" stroke-width="0.1"/>
<path d="M3.8151 4.97272L3.8151 4.9728L3.81799 4.97247C3.97455 4.95428 4.09605 4.82131 4.09605 4.65988C4.09605 4.48607 3.95515 4.34517 3.78135 4.34517H2.28497V4.34509L2.28209 4.34526L2.25122 4.34704L2.25121 4.34695L2.24833 4.34729C2.09176 4.36547 1.97026 4.49845 1.97026 4.65988C1.97026 4.83369 2.11116 4.97458 2.28497 4.97458H3.78135V4.97467L3.78423 4.9745L3.8151 4.97272Z" fill="white" stroke="white" stroke-width="0.1"/>
<path d="M3.8151 5.92496L3.8151 5.92504L3.81799 5.92471C3.97455 5.90652 4.09605 5.77355 4.09605 5.61212C4.09605 5.43831 3.95515 5.29741 3.78135 5.29741H2.28497V5.29733L2.28209 5.2975L2.25122 5.29928L2.25121 5.29919L2.24833 5.29953C2.09176 5.31771 1.97026 5.45069 1.97026 5.61212C1.97026 5.78593 2.11116 5.92682 2.28497 5.92682H3.78135V5.92691L3.78423 5.92674L3.8151 5.92496Z" fill="white" stroke="white" stroke-width="0.1"/>
<path d="M3.8151 6.8772L3.8151 6.87728L3.81799 6.87695C3.97455 6.85876 4.09605 6.72579 4.09605 6.56436C4.09605 6.39055 3.95515 6.24965 3.78135 6.24965H2.28497V6.24957L2.28209 6.24974L2.25122 6.25152L2.25121 6.25143L2.24833 6.25177C2.09176 6.26995 1.97026 6.40293 1.97026 6.56436C1.97026 6.73817 2.11116 6.87906 2.28497 6.87906H3.78135V6.87915L3.78423 6.87898L3.8151 6.8772Z" fill="white" stroke="white" stroke-width="0.1"/>
<path d="M3.8151 7.82944L3.8151 7.82952L3.81799 7.82919C3.97455 7.811 4.09605 7.67803 4.09605 7.5166C4.09605 7.34279 3.95515 7.20189 3.78135 7.20189H2.28497V7.20181L2.28209 7.20198L2.25122 7.20376L2.25121 7.20367L2.24833 7.20401C2.09176 7.22219 1.97026 7.35517 1.97026 7.5166C1.97026 7.69041 2.11116 7.8313 2.28497 7.8313H3.78135V7.83139L3.78423 7.83122L3.8151 7.82944Z" fill="white" stroke="white" stroke-width="0.1"/>
</svg>