<svg width="18" height="17" viewBox="0 0 18 17" fill="none" xmlns="http://www.w3.org/2000/svg">
<path d="M6 7.23115C6 7.91478 5.42336 8.47073 4.71429 8.47073V9.09052C4.71429 9.3186 4.52229 9.50371 4.28571 9.50371C4.04914 9.50371 3.85714 9.3186 3.85714 9.09052V8.47073H3.21429C2.97771 8.47073 2.78571 8.28562 2.78571 8.05753C2.78571 7.82945 2.97771 7.64434 3.21429 7.64434H4.71429C4.95064 7.64434 5.14286 7.45902 5.14286 7.23115C5.14286 7.00327 4.95064 6.81796 4.71429 6.81796H3.85714C3.14807 6.81796 2.57143 6.26201 2.57143 5.57838C2.57143 4.89475 3.14807 4.3388 3.85714 4.3388V3.71901C3.85714 3.49093 4.04914 3.30582 4.28571 3.30582C4.52229 3.30582 4.71429 3.49093 4.71429 3.71901V4.3388H5.35714C5.59371 4.3388 5.78571 4.52391 5.78571 4.75199C5.78571 4.98008 5.59371 5.16519 5.35714 5.16519H3.85714C3.62079 5.16519 3.42857 5.3505 3.42857 5.57838C3.42857 5.80625 3.62079 5.99157 3.85714 5.99157H4.71429C5.42336 5.99157 6 6.54752 6 7.23115ZM11.1429 4.75199C11.1429 4.52391 10.9509 4.3388 10.7143 4.3388H7.92857C7.692 4.3388 7.5 4.52391 7.5 4.75199C7.5 4.98008 7.692 5.16519 7.92857 5.16519H10.7143C10.9509 5.16519 11.1429 4.98008 11.1429 4.75199ZM11.1429 6.40476C11.1429 6.17668 10.9509 5.99157 10.7143 5.99157H7.92857C7.692 5.99157 7.5 6.17668 7.5 6.40476C7.5 6.63285 7.692 6.81796 7.92857 6.81796H10.7143C10.9509 6.81796 11.1429 6.63285 11.1429 6.40476ZM11.1429 8.05753C11.1429 7.82945 10.9509 7.64434 10.7143 7.64434H7.92857C7.692 7.64434 7.5 7.82945 7.5 8.05753C7.5 8.28562 7.692 8.47073 7.92857 8.47073H10.7143C10.9509 8.47073 11.1429 8.28562 11.1429 8.05753ZM11.1429 10.7433C11.1429 10.5152 10.9509 10.3301 10.7143 10.3301H3C2.76343 10.3301 2.57143 10.5152 2.57143 10.7433C2.57143 10.9714 2.76343 11.1565 3 11.1565H10.7143C10.9509 11.1565 11.1429 10.9714 11.1429 10.7433ZM11.1429 12.3961C11.1429 12.168 10.9509 11.9829 10.7143 11.9829H3C2.76343 11.9829 2.57143 12.168 2.57143 12.3961C2.57143 12.6241 2.76343 12.8092 3 12.8092H10.7143C10.9509 12.8092 11.1429 12.6241 11.1429 12.3961ZM11.1429 14.0488C11.1429 13.8207 10.9509 13.6356 10.7143 13.6356H3C2.76343 13.6356 2.57143 13.8207 2.57143 14.0488C2.57143 14.2769 2.76343 14.462 3 14.462H10.7143C10.9509 14.462 11.1429 14.2769 11.1429 14.0488ZM18 9.09052V14.462C18 15.8291 16.8465 16.9412 15.4286 16.9412H2.57143C1.1535 16.9412 0 15.8291 0 14.462V0.413471C0 0.26121 0.087 0.121137 0.2265 0.0490352C0.365357 -0.023067 0.534643 -0.0152162 0.666429 0.0696949L1.71429 0.743405L2.76236 0.0696949C2.90636 -0.0226537 3.09386 -0.0226537 3.23786 0.0696949L4.28571 0.743405L5.33379 0.0696949C5.47779 -0.0226537 5.66529 -0.0226537 5.80929 0.0696949L6.85714 0.743405L7.90521 0.0696949C8.04921 -0.0226537 8.23671 -0.0226537 8.38071 0.0696949L9.42857 0.743405L10.4766 0.0696949C10.6206 -0.0226537 10.8081 -0.0226537 10.9521 0.0696949L12 0.743405L13.0481 0.0696949C13.1794 -0.0145964 13.3489 -0.0228604 13.488 0.0490352C13.6273 0.121137 13.7143 0.26121 13.7143 0.413471V8.67732H17.5714C17.808 8.67732 18 8.86243 18 9.09052ZM2.57143 16.1148H13.5174C13.1083 15.6756 12.8571 15.0973 12.8571 14.462V9.29711V9.09052V1.18552L12.2376 1.58363C12.0936 1.67598 11.9061 1.67598 11.7621 1.58363L10.7143 0.909922L9.66621 1.58363C9.52221 1.67598 9.33471 1.67598 9.19071 1.58363L8.14286 0.909922L7.09479 1.58363C6.95079 1.67598 6.76329 1.67598 6.61929 1.58363L5.57143 0.909922L4.52336 1.58363C4.37936 1.67598 4.19186 1.67598 4.04786 1.58363L3 0.909922L1.95193 1.58363C1.80793 1.67598 1.62043 1.67598 1.47643 1.58363L0.857143 1.18552V14.462C0.857143 15.3733 1.62621 16.1148 2.57143 16.1148ZM17.1429 9.50371H13.7143V14.462C13.7143 15.3733 14.4834 16.1148 15.4286 16.1148C16.3738 16.1148 17.1429 15.3733 17.1429 14.462V9.50371Z" fill="white"/>
</svg>