<svg width="18" height="16" viewBox="0 0 18 16" fill="none" xmlns="http://www.w3.org/2000/svg">
<path d="M9 0.901001C4.03735 0.901001 0 3.62897 0 6.98208V10.107C0 11.2101 0.488919 12.2412 1.34149 12.9359C2.66741 14.0167 4.28887 14.7778 6.06405 15.1774H6.0643C7.00662 15.3895 7.99151 15.5017 9.00024 15.5017C10.009 15.5017 10.9939 15.3895 11.9362 15.1774H11.9364C13.7116 14.7778 15.3331 14.0167 16.659 12.9359C17.5111 12.241 18 11.2101 18 10.1068V6.98208C18 3.62897 13.9626 0.901001 9 0.901001ZM2.83792 12.816C2.53095 12.6197 2.23541 12.4093 1.95616 12.1816C1.33151 11.6725 0.972973 10.9163 0.972973 10.1068V9.72684C1.44803 10.3585 2.08119 10.9268 2.83792 11.4081V12.816ZM5.67559 14.0777C5.0237 13.8941 4.39954 13.6555 3.81089 13.3655V11.9462C4.38641 12.2218 5.01154 12.4526 5.67559 12.6316V14.0777ZM8.51351 14.519C7.87743 14.4949 7.254 14.4226 6.64857 14.3066V12.8511C7.24816 12.9608 7.87159 13.0306 8.51351 13.0539V14.519ZM11.3514 14.3066C10.746 14.4226 10.1226 14.4951 9.48649 14.519V13.0539C10.1284 13.0308 10.7518 12.961 11.3514 12.8511V14.3066ZM17.027 10.1068C17.027 10.9161 16.6685 11.6723 16.0438 12.1814C15.7646 12.4091 15.4691 12.6192 15.1621 12.8158V12.5764C15.1621 12.3079 14.9441 12.0899 14.6756 12.0899C14.4071 12.0899 14.1891 12.3079 14.1891 12.5764V13.3653C13.6005 13.6555 12.9763 13.8938 12.3244 14.0775V12.6312C14.3647 12.0809 16.0385 11.0411 17.027 9.72684V10.1068ZM11.7555 11.7801C11.7438 11.782 11.7324 11.7847 11.7209 11.7876C10.8708 11.9832 9.95473 12.0902 9 12.0902C8.04527 12.0902 7.12922 11.9832 6.27908 11.7876C6.26765 11.7847 6.25622 11.7822 6.24454 11.7801C3.17165 11.0632 0.972973 9.18295 0.972973 6.98208C0.972973 4.16533 4.57395 1.87397 9 1.87397C13.4261 1.87397 17.027 4.16533 17.027 6.98208C17.027 9.18295 14.8284 11.0632 11.7555 11.7801Z" fill="white"/>
<path d="M13.5954 6.05192C13.5175 5.77827 13.2765 5.56616 12.951 5.48516L11.0939 5.02202L9.65167 3.9464C9.29191 3.67835 8.70813 3.67835 8.34861 3.9464L6.90643 5.02202L5.04902 5.48516C4.72356 5.56616 4.48275 5.77827 4.40491 6.05192C4.33632 6.29297 4.40467 6.54911 4.58783 6.73762L5.80113 7.98546L5.81183 8.95259C5.81451 9.16835 5.91521 9.36683 6.09594 9.51181C6.33359 9.70251 6.68775 9.77792 7.02051 9.70835L8.9521 9.30383C8.98153 9.29727 9.01753 9.29727 9.04843 9.30383L10.98 9.70835C11.0617 9.72537 11.1449 9.73389 11.2274 9.73389C11.4799 9.73389 11.7253 9.65556 11.9043 9.51181C12.0851 9.36683 12.1858 9.16811 12.1885 8.95235L12.1992 7.98546L13.4125 6.73762C13.5956 6.54911 13.664 6.29273 13.5954 6.05192ZM11.4183 7.39219C11.2972 7.51697 11.2293 7.67702 11.2274 7.84365L11.2174 8.76067C11.205 8.76019 11.1921 8.75873 11.1792 8.75581L9.24813 8.35129C9.16689 8.33427 9.08345 8.32575 9.00002 8.32575C8.91659 8.32575 8.83316 8.33427 8.75215 8.35129L6.82105 8.75581C6.80767 8.75848 6.79502 8.76019 6.78261 8.76067L6.77264 7.8434C6.7707 7.67702 6.70283 7.51673 6.5817 7.39219L5.57467 6.3567L7.15429 5.96289C7.27153 5.93346 7.37686 5.88456 7.46759 5.81719L8.9251 4.7294C8.9577 4.71189 9.04259 4.71189 9.06959 4.726L10.5332 5.81767C10.6232 5.88456 10.7285 5.9337 10.8462 5.96289L12.4242 6.35792L11.4183 7.39219Z" fill="white"/>
<path d="M11.8345 2.70613C11.574 2.63996 11.3094 2.79807 11.2437 3.05859C11.1778 3.3191 11.3354 3.5835 11.5959 3.64942C13.9714 4.25023 15.5676 5.58953 15.5676 6.9821C15.5676 7.4141 15.4158 7.84391 15.1164 8.25961C14.8138 8.67945 14.3764 9.06572 13.817 9.40821C13.5878 9.54832 13.5158 9.84799 13.6559 10.0771C13.7476 10.2272 13.9074 10.3099 14.0714 10.3099C14.1577 10.3099 14.2456 10.2868 14.3249 10.2384C14.9952 9.82829 15.527 9.35421 15.9054 8.8288C16.3267 8.2438 16.5406 7.62256 16.5406 6.9821C16.5406 5.10742 14.6934 3.42905 11.8345 2.70613Z" fill="white"/>
</svg>