<svg width="70" height="38" viewBox="0 0 70 38" fill="none" xmlns="http://www.w3.org/2000/svg">
<path d="M62.1356 36.6238C63.7101 36.6238 65.1979 36.4005 66.5992 35.954C68.0005 35.5075 69.1341 34.9653 70 34.3274L67.1424 28.4429C66.733 28.7459 66.2056 29.0011 65.5601 29.2084C64.9303 29.3997 64.2454 29.4954 63.5054 29.4954C61.6948 29.4954 60.2463 28.9213 59.1599 27.7731C58.0893 26.609 57.554 25.2216 57.554 23.611C57.554 22.686 57.7665 21.777 58.1916 20.884C58.6325 19.975 59.2938 19.2255 60.1754 18.6355C61.0571 18.0295 62.1514 17.7265 63.4582 17.7265C64.9539 17.7265 66.182 18.0773 67.1424 18.779L70 12.8945C69.1655 12.2407 68.0241 11.6985 66.5756 11.2679C65.1428 10.8214 63.6471 10.5981 62.0884 10.5981C60.1361 10.5981 58.3333 10.957 56.6802 11.6746C55.027 12.3762 53.5864 13.341 52.3583 14.569C51.1302 15.7969 50.1698 17.1923 49.4771 18.7551C48.8001 20.3179 48.4615 21.9445 48.4615 23.6349C48.4615 25.421 48.8237 27.1034 49.5479 28.6821C50.2722 30.2449 51.2641 31.6244 52.5236 32.8204C53.7832 34.0164 55.2395 34.9493 56.8927 35.6191C58.5459 36.2889 60.2935 36.6238 62.1356 36.6238Z" fill="#008C44" fill-opacity="0.7"/>
<path d="M42.5296 37.5214C44.9277 37.5214 47.1173 36.9559 49.0984 35.8248C51.0794 34.6774 52.6608 33.1038 53.8425 31.1041C55.0416 29.0879 55.6411 26.7685 55.6411 24.1459C55.6411 21.5888 55.0676 19.3022 53.9207 17.286C52.7738 15.2699 51.1924 13.6799 49.1766 12.5161C47.1781 11.3523 44.8843 10.7704 42.295 10.7704C40.6093 10.7704 39.028 11.0491 37.5509 11.6064C36.0738 12.1473 34.8052 12.9013 33.7451 13.8684V0H24.2308V36.7346H33.7451V34.1283C34.9442 35.2102 36.291 36.0461 37.7855 36.6362C39.2973 37.2263 40.8787 37.5214 42.5296 37.5214ZM39.6101 29.9239C37.8376 29.9239 36.3779 29.383 35.2309 28.3011C34.1014 27.2029 33.5366 25.8342 33.5366 24.1951C33.5366 22.5231 34.1101 21.138 35.257 20.0398C36.4213 18.9252 37.8637 18.3679 39.5841 18.3679C41.3045 18.3679 42.7381 18.9252 43.8851 20.0398C45.032 21.138 45.6054 22.5313 45.6054 24.2196C45.6054 25.8588 45.0407 27.2193 43.9111 28.3011C42.7989 29.383 41.3653 29.9239 39.6101 29.9239Z" fill="#008C44" fill-opacity="0.7"/>
<path d="M12.083 37.5212C15.0541 37.5212 17.6995 36.4209 20.0191 34.2202V36.7558H28.7179V12.2611H20.0191V14.5096C19.05 13.5687 17.8742 12.8352 16.492 12.3089C15.1097 11.7667 13.64 11.4956 12.083 11.4956C9.73153 11.4956 7.64223 12.0697 5.81509 13.2179C4.00383 14.3501 2.58183 15.897 1.5491 17.8585C0.516367 19.82 0 22.0207 0 24.4606C0 26.9802 0.5402 29.2288 1.6206 31.2062C2.701 33.1677 4.15477 34.7146 5.98191 35.8468C7.80906 36.9631 9.84275 37.5212 12.083 37.5212ZM14.7045 30.1298C13.1157 30.1298 11.797 29.6035 10.7484 28.551C9.69975 27.4826 9.17544 26.135 9.17544 24.5084C9.17544 22.8978 9.69975 21.5582 10.7484 20.4898C11.797 19.4213 13.1157 18.8871 14.7045 18.8871C16.3092 18.8871 17.62 19.4213 18.6369 20.4898C19.6696 21.5423 20.186 22.8818 20.186 24.5084C20.186 26.135 19.6696 27.4826 18.6369 28.551C17.62 29.6035 16.3092 30.1298 14.7045 30.1298Z" fill="#008C44" fill-opacity="0.7"/>
</svg>
