<svg width="11" height="10" viewBox="0 0 11 10" fill="none" xmlns="http://www.w3.org/2000/svg">
<path d="M4.9516 9.79079C4.70379 10.0697 4.30202 10.0697 4.05421 9.79079L0.246901 5.50507C0.1279 5.37112 0.0610451 5.18944 0.0610451 5C0.0610451 4.81056 0.1279 4.62888 0.246901 4.49492L4.05421 0.209209C4.30202 -0.069738 4.70379 -0.069738 4.9516 0.209209C5.19941 0.488155 5.19941 0.940416 4.9516 1.21936L2.22754 4.28571L9.57932 4.28571C9.92977 4.28571 10.2139 4.60551 10.2139 5C10.2139 5.39449 9.92977 5.71428 9.57932 5.71428L2.22754 5.71428L4.9516 8.78064C5.19941 9.05958 5.19941 9.51184 4.9516 9.79079Z" fill="#008C44"/>
</svg>