<svg width="42" height="42" viewBox="0 0 42 42" fill="none" xmlns="http://www.w3.org/2000/svg">
<circle cx="21" cy="21" r="21" fill="#ECF8EE" fill-opacity="0.65"/>
<path d="M19.1461 12.2481C19.4433 11.5162 20.1614 11 21 11C21.8386 11 22.5567 11.5162 22.8539 12.2481C25.8202 13.0607 28 15.7758 28 19V23.6972L29.8321 26.4453C30.0366 26.7522 30.0557 27.1467 29.8817 27.4719C29.7077 27.797 29.3688 28 29 28H24.4646C24.2219 29.6961 22.7632 31 21 31C19.2368 31 17.7781 29.6961 17.5354 28H13C12.6312 28 12.2923 27.797 12.1183 27.4719C11.9443 27.1467 11.9634 26.7522 12.168 26.4453L14 23.6972V19C14 15.7758 16.1798 13.0607 19.1461 12.2481ZM19.5854 28C19.7913 28.5826 20.3469 29 21 29C21.6531 29 22.2087 28.5826 22.4146 28H19.5854ZM21 14C18.2386 14 16 16.2386 16 19V24C16 24.1974 15.9416 24.3904 15.8321 24.5547L14.8685 26H27.1315L26.168 24.5547C26.0584 24.3904 26 24.1974 26 24V19C26 16.2386 23.7614 14 21 14Z" fill="#008C44"/>
</svg>