<svg width="24" height="24" viewBox="0 0 24 24" fill="none" xmlns="http://www.w3.org/2000/svg">
<circle opacity="0.07" cx="12" cy="12" r="12" fill="#008C44"/>
<circle cx="12" cy="12.0005" r="10.1333" fill="#008C44"/>
<path d="M9.75011 15.1274L7.14761 12.5249C7.00738 12.3846 6.81718 12.3059 6.61886 12.3059C6.42054 12.3059 6.23034 12.3846 6.09011 12.5249C5.94988 12.6651 5.87109 12.8553 5.87109 13.0536C5.87109 13.1518 5.89044 13.2491 5.92801 13.3398C5.96559 13.4305 6.02067 13.5129 6.09011 13.5824L9.22511 16.7174C9.51761 17.0099 9.99011 17.0099 10.2826 16.7174L18.2176 8.78238C18.3578 8.64214 18.4366 8.45194 18.4366 8.25363C18.4366 8.05531 18.3578 7.86511 18.2176 7.72488C18.0774 7.58464 17.8872 7.50586 17.6889 7.50586C17.4905 7.50586 17.3003 7.58464 17.1601 7.72488L9.75011 15.1274Z" fill="white"/>
</svg>