<svg width="24" height="24" viewBox="0 0 24 24" fill="none" xmlns="http://www.w3.org/2000/svg">
<circle opacity="0.07" cx="12" cy="12" r="12" fill="#E94933"/>
<circle cx="12" cy="12" r="10.1333" fill="#E94933"/>
<g clip-path="url(#clip0_6625:40733)">
<path d="M15.1499 8.85494C15.1036 8.80859 15.0487 8.77182 14.9882 8.74673C14.9277 8.72164 14.8629 8.70872 14.7974 8.70872C14.7319 8.70872 14.667 8.72164 14.6066 8.74673C14.5461 8.77182 14.4911 8.80859 14.4449 8.85494L11.9999 11.2949L9.55487 8.84994C9.50858 8.80365 9.45362 8.76693 9.39314 8.74188C9.33266 8.71683 9.26783 8.70393 9.20237 8.70393C9.1369 8.70393 9.07208 8.71683 9.0116 8.74188C8.95111 8.76693 8.89616 8.80365 8.84987 8.84994C8.80358 8.89623 8.76686 8.95119 8.7418 9.01167C8.71675 9.07215 8.70386 9.13698 8.70386 9.20244C8.70386 9.26791 8.71675 9.33273 8.7418 9.39322C8.76686 9.4537 8.80358 9.50865 8.84987 9.55494L11.2949 11.9999L8.84987 14.4449C8.80358 14.4912 8.76686 14.5462 8.7418 14.6067C8.71675 14.6672 8.70386 14.732 8.70386 14.7974C8.70386 14.8629 8.71675 14.9277 8.7418 14.9882C8.76686 15.0487 8.80358 15.1037 8.84987 15.1499C8.89616 15.1962 8.95111 15.233 9.0116 15.258C9.07208 15.2831 9.1369 15.296 9.20237 15.296C9.26783 15.296 9.33266 15.2831 9.39314 15.258C9.45362 15.233 9.50858 15.1962 9.55487 15.1499L11.9999 12.7049L14.4449 15.1499C14.4912 15.1962 14.5461 15.233 14.6066 15.258C14.6671 15.2831 14.7319 15.296 14.7974 15.296C14.8628 15.296 14.9277 15.2831 14.9881 15.258C15.0486 15.233 15.1036 15.1962 15.1499 15.1499C15.1962 15.1037 15.2329 15.0487 15.2579 14.9882C15.283 14.9277 15.2959 14.8629 15.2959 14.7974C15.2959 14.732 15.283 14.6672 15.2579 14.6067C15.2329 14.5462 15.1962 14.4912 15.1499 14.4449L12.7049 11.9999L15.1499 9.55494C15.3399 9.36494 15.3399 9.04494 15.1499 8.85494V8.85494Z" fill="white"/>
</g>
<defs>
<clipPath id="clip0_6625:40733">
<rect width="8.53345" height="8.53333" fill="white" transform="translate(7.7334 7.73334)"/>
</clipPath>
</defs>
</svg>