<svg width="18" height="16" viewBox="0 0 18 16" fill="none" xmlns="http://www.w3.org/2000/svg">
<path d="M4.11951 14.231H0.374501C0.168525 14.231 0 14.0625 0 13.8565V7.1155C0 6.90877 0.168525 6.741 0.374501 6.741H4.11951C4.32549 6.741 4.49401 6.90877 4.49401 7.1155V13.8565C4.49401 14.0632 4.32549 14.231 4.11951 14.231ZM0.749002 13.482H3.74501V7.49H0.749002V13.482Z" fill="white"/>
<path d="M10.3692 15.3081C9.08388 15.3081 7.4915 14.5561 6.21295 13.9516C5.45571 13.5928 4.67226 13.2243 4.35393 13.2243C4.14871 13.2243 3.97943 13.0566 3.97943 12.8498C3.97943 12.6431 4.14871 12.4753 4.35393 12.4753C4.84078 12.4753 5.58754 12.8281 6.53353 13.2738C7.74391 13.846 9.25166 14.5576 10.3699 14.5576C12.5757 14.5576 17.2517 11.7698 17.2517 10.9998C17.2517 10.3527 16.9784 10.0636 16.3619 10.0636C16.1672 10.0636 15.6541 10.4845 15.2796 10.7916C14.4557 11.4627 13.524 12.2237 12.6319 11.9683C12.4476 11.9166 12.3323 11.7323 12.3668 11.5421C12.4237 11.2275 12.336 11.0837 12.2656 11.0006C11.8694 10.5429 10.5879 10.5894 9.90478 10.6141C9.75124 10.6201 9.61342 10.6253 9.50706 10.6253C9.1026 10.6253 8.7678 10.4103 8.34237 10.1392C7.60535 9.66508 6.5942 9.0172 4.491 8.98798C4.28427 8.98499 4.11875 8.81497 4.12174 8.60749C4.12474 8.40152 4.28877 8.24423 4.50149 8.23898C6.81965 8.27119 7.97985 9.0157 8.74683 9.50779C9.06965 9.71302 9.32281 9.8763 9.50706 9.8763C9.60818 9.8763 9.73401 9.87181 9.87707 9.86507C10.7998 9.83286 12.202 9.78118 12.8304 10.5092C13.0131 10.7189 13.1128 10.9691 13.13 11.2567C13.6288 11.1728 14.2692 10.6478 14.8048 10.2111C15.4159 9.70927 15.9005 9.31455 16.3612 9.31455C17.403 9.31455 18 9.92873 18 10.9998C18 12.5899 12.372 15.3081 10.3692 15.3081Z" fill="white"/>
<path d="M12.733 11.984H7.48998C7.284 11.984 7.11548 11.8155 7.11548 11.6095C7.11548 11.4036 7.284 11.235 7.48998 11.235H12.733C12.939 11.235 13.1075 11.4036 13.1075 11.6095C13.1075 11.8155 12.9397 11.984 12.733 11.984Z" fill="white"/>
<path d="M13.8565 2.24701H11.6095C10.9894 2.24701 10.486 1.74293 10.486 1.1235C10.486 0.504078 10.9894 0 11.6095 0H13.8565C14.4752 0 14.98 0.504078 14.98 1.1235C14.98 1.74293 14.476 2.24701 13.8565 2.24701ZM11.6095 0.749002C11.4065 0.749002 11.235 0.920523 11.235 1.1235C11.235 1.32948 11.4036 1.498 11.6095 1.498H13.8565C14.0625 1.498 14.231 1.32948 14.231 1.1235C14.231 0.920523 14.0595 0.749002 13.8565 0.749002H11.6095Z" fill="white"/>
<path d="M10.1115 5.24298H7.86453C7.24511 5.24298 6.74103 4.7389 6.74103 4.11947C6.74103 3.50005 7.24511 2.99597 7.86453 2.99597H10.1115C10.7302 2.99597 11.235 3.50005 11.235 4.11947C11.235 4.7389 10.731 5.24298 10.1115 5.24298ZM7.86453 3.74497C7.66155 3.74497 7.49003 3.91649 7.49003 4.11947C7.49003 4.32545 7.65856 4.49398 7.86453 4.49398H10.1115C10.3175 4.49398 10.486 4.32545 10.486 4.11947C10.486 3.91649 10.3145 3.74497 10.1115 3.74497H7.86453Z" fill="white"/>
<path d="M13.8565 8.23901H11.6095C10.9894 8.23901 10.486 7.73493 10.486 7.11551C10.486 6.49608 10.9894 5.992 11.6095 5.992H13.8565C14.4752 5.992 14.98 6.49608 14.98 7.11551C14.98 7.73493 14.476 8.23901 13.8565 8.23901ZM11.6095 6.74101C11.4065 6.74101 11.235 6.91253 11.235 7.11551C11.235 7.32148 11.4036 7.49001 11.6095 7.49001H13.8565C14.0625 7.49001 14.231 7.32148 14.231 7.11551C14.231 6.91253 14.0595 6.74101 13.8565 6.74101H11.6095Z" fill="white"/>
</svg>