<svg width="25" height="25" viewBox="0 0 25 25" fill="none" xmlns="http://www.w3.org/2000/svg">
<path d="M10.8679 19.929C10.6419 19.929 10.4149 19.853 10.2279 19.697C9.8039 19.344 9.7469 18.713 10.0999 18.289L14.5759 12.918L10.2609 7.55603C9.9149 7.12603 9.9829 6.49603 10.4129 6.15003C10.8439 5.80403 11.4729 5.87203 11.8199 6.30203L16.6479 12.302C16.9459 12.673 16.9419 13.203 16.6369 13.569L11.6369 19.569C11.4389 19.806 11.1549 19.929 10.8679 19.929Z" fill="#008C44"/>
<mask id="mask0_7003:16874" style="mask-type:alpha" maskUnits="userSpaceOnUse" x="9" y="5" width="8" height="15">
<path d="M10.8679 19.929C10.6419 19.929 10.4149 19.853 10.2279 19.697C9.8039 19.344 9.7469 18.713 10.0999 18.289L14.5759 12.918L10.2609 7.55603C9.9149 7.12603 9.9829 6.49603 10.4129 6.15003C10.8439 5.80403 11.4729 5.87203 11.8199 6.30203L16.6479 12.302C16.9459 12.673 16.9419 13.203 16.6369 13.569L11.6369 19.569C11.4389 19.806 11.1549 19.929 10.8679 19.929Z" fill="white"/>
</mask>
<g mask="url(#mask0_7003:16874)">
</g>
</svg>