<svg width="39" height="36" viewBox="0 0 39 36" fill="none" xmlns="http://www.w3.org/2000/svg">
<path d="M7.0144 10.5C7.0144 9.67157 7.70869 9 8.56513 9H30.2753C31.1317 9 31.826 9.67157 31.826 10.5C31.826 11.3284 31.1317 12 30.2753 12H8.56513C7.70869 12 7.0144 11.3284 7.0144 10.5ZM7.0144 18C7.0144 17.1716 7.70869 16.5 8.56513 16.5H30.2753C31.1317 16.5 31.826 17.1716 31.826 18C31.826 18.8284 31.1317 19.5 30.2753 19.5H8.56513C7.70869 19.5 7.0144 18.8284 7.0144 18ZM7.0144 25.5C7.0144 24.6716 7.70869 24 8.56513 24H30.2753C31.1317 24 31.826 24.6716 31.826 25.5C31.826 26.3284 31.1317 27 30.2753 27H8.56513C7.70869 27 7.0144 26.3284 7.0144 25.5Z" fill="#008C44"/>
</svg>