<svg width="11" height="23" viewBox="0 0 11 23" fill="none" xmlns="http://www.w3.org/2000/svg">
<path d="M9.5 5.74926V16.3293C9.5 18.4193 7.97 20.2793 5.89 20.4793C5.33435 20.5348 4.77322 20.4731 4.24288 20.2983C3.71253 20.1235 3.22475 19.8394 2.81104 19.4643C2.39733 19.0892 2.06689 18.6315 1.84107 18.1208C1.61524 17.6101 1.49905 17.0577 1.5 16.4993V4.13926C1.5 2.82926 2.44 1.63926 3.74 1.50926C4.08863 1.47281 4.44104 1.51008 4.77434 1.61865C5.10763 1.72722 5.41437 1.90467 5.67464 2.13948C5.93491 2.37429 6.14289 2.66121 6.28508 2.98161C6.42728 3.30201 6.5005 3.64873 6.5 3.99926V14.4993C6.5 15.0493 6.05 15.4993 5.5 15.4993C4.95 15.4993 4.5 15.0493 4.5 14.4993V5.74926C4.5 5.33926 4.16 4.99926 3.75 4.99926C3.34 4.99926 3 5.33926 3 5.74926V14.3593C3 15.6693 3.94 16.8593 5.24 16.9893C5.58863 17.0257 5.94104 16.9885 6.27434 16.8799C6.60763 16.7713 6.91437 16.5939 7.17464 16.359C7.43491 16.1242 7.64289 15.8373 7.78508 15.5169C7.92728 15.1965 8.0005 14.8498 8 14.4993V4.16926C8 2.07926 6.47 0.219264 4.39 0.0192644C3.8345 -0.0354654 3.2737 0.0267331 2.74369 0.201856C2.21369 0.376978 1.72622 0.661144 1.31269 1.03606C0.899149 1.41097 0.568702 1.86833 0.342618 2.37868C0.116534 2.88904 -0.000176281 3.44108 1.99848e-07 3.99926V16.2693C1.99848e-07 19.1393 2.1 21.7093 4.96 21.9793C8.25 22.2793 11 19.7193 11 16.4993V5.74926C11 5.33926 10.66 4.99926 10.25 4.99926C9.84 4.99926 9.5 5.33926 9.5 5.74926Z" fill="#E94933"/>
</svg>