<svg width="86" height="86" viewBox="0 0 86 86" fill="none" xmlns="http://www.w3.org/2000/svg">
<path fill-rule="evenodd" clip-rule="evenodd" d="M81.2373 38.64H81.25C83.5918 38.64 85.4958 40.5355 85.5 42.8772C85.534 54.229 81.1438 64.9177 73.1368 72.9672C65.134 81.0167 54.475 85.4665 43.1233 85.5005H43C31.6908 85.5005 21.053 81.1145 13.0333 73.1372C4.98376 65.1345 0.534013 54.4755 0.500013 43.1237C0.466013 31.7677 4.85626 21.0832 12.8633 13.0337C20.866 4.98424 31.525 0.534488 42.8768 0.500488C46.2555 0.551488 49.698 0.891488 52.996 1.68199C55.274 2.23449 56.6808 4.52949 56.1283 6.81174C55.58 9.08974 53.2723 10.4922 51.0028 9.94824C48.3635 9.31074 45.5628 9.04299 42.9023 9.00049C33.82 9.02599 25.2903 12.5875 18.8898 19.0262C12.485 25.465 8.97451 34.016 9.00001 43.0982C9.02551 52.1805 12.587 60.706 19.0258 67.1107C25.4433 73.49 33.9518 77.0005 43 77.0005H43.0978C52.18 76.975 60.7098 73.4135 67.1103 66.9747C73.515 60.5317 77.0255 51.985 77 42.9027C76.9958 40.5567 78.8913 38.6442 81.2373 38.64ZM27.2453 39.9953C28.907 38.3336 31.593 38.3336 33.2548 39.9953L42.7918 49.5323L69.554 18.9493C71.101 17.1941 73.7828 17.0071 75.5508 18.5541C77.3145 20.0968 77.493 22.7828 75.946 24.5508L46.196 58.5508C45.4225 59.4348 44.3175 59.9576 43.1403 60.0001H43C41.8738 60.0001 40.7943 59.5538 39.9953 58.7548L27.2453 46.0048C25.5835 44.3431 25.5835 41.6571 27.2453 39.9953Z" fill="#008C44"/>
</svg>