<svg width="102" height="102" viewBox="0 0 102 102" fill="none" xmlns="http://www.w3.org/2000/svg">
<g filter="url(#filter0_d_4937_13862)">
<path d="M42.7164 83.7286C35.7019 90.7431 24.2752 90.7433 17.2608 83.7288C10.2463 76.7143 10.2464 65.2878 17.261 58.2733L31.4031 44.131C38.4177 37.1165 49.8443 37.1164 56.8588 44.1309C57.1437 44.408 57.3707 44.739 57.5265 45.1046C57.6824 45.4702 57.7641 45.8632 57.7668 46.2607C57.7696 46.6581 57.6933 47.0522 57.5425 47.4199C57.3916 47.7877 57.1692 48.1218 56.8882 48.4028C56.6071 48.6839 56.273 48.9063 55.9053 49.0572C55.5375 49.208 55.1435 49.2843 54.746 49.2816C54.3485 49.2788 53.9556 49.1971 53.5899 49.0413C53.2243 48.8854 52.8933 48.6584 52.6161 48.3735C47.8787 43.636 40.3832 43.6361 35.6457 48.3737L21.5036 62.5157C16.766 67.2533 16.766 74.7488 21.5035 79.4863C26.2409 84.2237 33.7363 84.2235 38.4739 79.4861L51.9089 66.051C52.1861 65.7661 52.5171 65.5392 52.8827 65.3833C53.2483 65.2274 53.6413 65.1457 54.0388 65.143C54.4362 65.1403 54.8303 65.2165 55.198 65.3674C55.5657 65.5182 55.8998 65.7406 56.1809 66.0217C56.4619 66.3027 56.6843 66.6368 56.8352 67.0045C56.986 67.3722 57.0623 67.7663 57.0595 68.1638C57.0568 68.5612 56.9751 68.9542 56.8192 69.3198C56.6633 69.6855 56.4364 70.0165 56.1515 70.2936L42.7164 83.7286ZM69.5865 56.8585C62.5719 63.8731 51.1453 63.8732 44.1309 56.8588C43.8461 56.5816 43.6191 56.2506 43.4633 55.885C43.3075 55.5194 43.2258 55.1265 43.2231 54.7291C43.2204 54.3316 43.2967 53.9376 43.4476 53.5699C43.5984 53.2022 43.8208 52.8682 44.1018 52.5872C44.3829 52.3061 44.7169 52.0837 45.0846 51.9329C45.4523 51.782 45.8463 51.7057 46.2438 51.7084C46.6412 51.7111 47.0341 51.7927 47.3997 51.9485C47.7653 52.1044 48.0963 52.3313 48.3735 52.6161C53.111 57.3536 60.6064 57.3535 65.3439 52.6159L79.4861 38.4739C84.2236 33.7363 84.2237 26.2409 79.4862 21.5035C74.7487 16.766 67.2533 16.766 62.5158 21.5035L49.0807 34.9386C48.8036 35.2236 48.4726 35.4508 48.1069 35.6068C47.7412 35.7628 47.3482 35.8445 46.9507 35.8473C46.5532 35.8501 46.159 35.7739 45.7912 35.623C45.4234 35.4722 45.0892 35.2497 44.8081 34.9686C44.527 34.6875 44.3046 34.3534 44.1537 33.9855C44.0029 33.6177 43.9266 33.2236 43.9294 32.826C43.9322 32.4285 44.014 32.0355 44.17 31.6698C44.326 31.3041 44.5531 30.9731 44.8382 30.696L58.2732 17.261C65.2878 10.2464 76.7144 10.2463 83.7288 17.2608C90.7433 24.2752 90.7432 35.7018 83.7286 42.7164L69.5865 56.8585Z" fill="#008C44"/>
<path d="M67.4603 67.4603C68.0739 66.8466 69.0689 66.8466 69.6826 67.4603L78 75.7777L86.3174 67.4603C86.9311 66.8466 87.9261 66.8466 88.5397 67.4603C89.1534 68.0739 89.1534 69.0689 88.5397 69.6826L80.2223 78L88.5397 86.3174C89.1534 86.9311 89.1534 87.9261 88.5397 88.5397C87.9261 89.1534 86.9311 89.1534 86.3174 88.5397L78 80.2223L69.6826 88.5397C69.0689 89.1534 68.0739 89.1534 67.4603 88.5397C66.8466 87.9261 66.8466 86.9311 67.4603 86.3174L75.7777 78L67.4603 69.6826C66.8466 69.0689 66.8466 68.0739 67.4603 67.4603Z" fill="#008C44" stroke="#008C44" stroke-width="2" stroke-miterlimit="10" stroke-linecap="round" stroke-linejoin="round"/>
</g>
<defs>
<filter id="filter0_d_4937_13862" x="0" y="0" width="102" height="102" filterUnits="userSpaceOnUse" color-interpolation-filters="sRGB">
<feFlood flood-opacity="0" result="BackgroundImageFix"/>
<feColorMatrix in="SourceAlpha" type="matrix" values="0 0 0 0 0 0 0 0 0 0 0 0 0 0 0 0 0 0 127 0" result="hardAlpha"/>
<feOffset/>
<feGaussianBlur stdDeviation="6"/>
<feColorMatrix type="matrix" values="0 0 0 0 0.89066 0 0 0 0 0.941667 0 0 0 0 0.893014 0 0 0 0.5 0"/>
<feBlend mode="normal" in2="BackgroundImageFix" result="effect1_dropShadow_4937_13862"/>
<feBlend mode="normal" in="SourceGraphic" in2="effect1_dropShadow_4937_13862" result="shape"/>
</filter>
</defs>
</svg>