<svg width="15" height="17" viewBox="0 0 15 17" fill="none" xmlns="http://www.w3.org/2000/svg">
<path d="M5.5 12.9998H9.5C9.76522 12.9998 10.0196 12.8945 10.2071 12.707C10.3946 12.5194 10.5 12.2651 10.5 11.9998V6.99985H12.086C12.2838 6.99981 12.477 6.94113 12.6415 6.83125C12.8059 6.72137 12.934 6.5652 13.0097 6.3825C13.0853 6.1998 13.1052 5.99877 13.0666 5.80482C13.028 5.61086 12.9328 5.4327 12.793 5.29285L8.207 0.706849C8.01947 0.519378 7.76516 0.414062 7.5 0.414062C7.23484 0.414063 6.98053 0.519378 6.793 0.706849L2.207 5.29285C2.06719 5.4327 1.97198 5.61086 1.93342 5.80482C1.89485 5.99877 1.91465 6.1998 1.99032 6.3825C2.06599 6.5652 2.19413 6.72137 2.35854 6.83125C2.52295 6.94113 2.71625 6.99981 2.914 6.99985H4.5V11.9998C4.5 12.2651 4.60536 12.5194 4.79289 12.707C4.98043 12.8945 5.23478 12.9998 5.5 12.9998ZM1.5 14.9998H13.5C13.7652 14.9998 14.0196 15.1052 14.2071 15.2927C14.3946 15.4803 14.5 15.7346 14.5 15.9998C14.5 16.2651 14.3946 16.5194 14.2071 16.707C14.0196 16.8945 13.7652 16.9998 13.5 16.9998H1.5C1.23478 16.9998 0.98043 16.8945 0.792893 16.707C0.605357 16.5194 0.5 16.2651 0.5 15.9998C0.5 15.7346 0.605357 15.4803 0.792893 15.2927C0.98043 15.1052 1.23478 14.9998 1.5 14.9998Z" fill="#008C44"/>
</svg>