<svg width="28" height="23" viewBox="0 0 28 23" fill="none" xmlns="http://www.w3.org/2000/svg">
<path d="M14.8057 13.1816C14.8057 16.1309 14.1953 18.3867 12.9746 19.9492C11.7539 21.5117 9.9668 22.293 7.61328 22.293C5.28906 22.293 3.51172 21.5264 2.28125 19.9932C1.05078 18.46 0.420898 16.2627 0.391602 13.4014V9.47559C0.391602 6.49707 1.00684 4.23633 2.2373 2.69336C3.47754 1.15039 5.25977 0.378906 7.58398 0.378906C9.9082 0.378906 11.6855 1.14551 12.916 2.67871C14.1465 4.20215 14.7764 6.39453 14.8057 9.25586V13.1816ZM10.5723 8.875C10.5723 7.10742 10.3281 5.82324 9.83984 5.02246C9.36133 4.21191 8.60938 3.80664 7.58398 3.80664C6.58789 3.80664 5.85059 4.19238 5.37207 4.96387C4.90332 5.72559 4.6543 6.92188 4.625 8.55273V13.7383C4.625 15.4766 4.85938 16.7705 5.32812 17.6201C5.80664 18.46 6.56836 18.8799 7.61328 18.8799C8.64844 18.8799 9.39551 18.4746 9.85449 17.6641C10.3135 16.8535 10.5527 15.6133 10.5723 13.9434V8.875ZM27.96 22H23.7266V5.68164L18.6729 7.24902V3.80664L27.5059 0.642578H27.96V22Z" fill="#008C44"/>
</svg>
