<svg width="32" height="23" viewBox="0 0 32 23" fill="none" xmlns="http://www.w3.org/2000/svg">
<path d="M14.8057 13.1816C14.8057 16.1309 14.1953 18.3867 12.9746 19.9492C11.7539 21.5117 9.9668 22.293 7.61328 22.293C5.28906 22.293 3.51172 21.5264 2.28125 19.9932C1.05078 18.46 0.420898 16.2627 0.391602 13.4014V9.47559C0.391602 6.49707 1.00684 4.23633 2.2373 2.69336C3.47754 1.15039 5.25977 0.378906 7.58398 0.378906C9.9082 0.378906 11.6855 1.14551 12.916 2.67871C14.1465 4.20215 14.7764 6.39453 14.8057 9.25586V13.1816ZM10.5723 8.875C10.5723 7.10742 10.3281 5.82324 9.83984 5.02246C9.36133 4.21191 8.60938 3.80664 7.58398 3.80664C6.58789 3.80664 5.85059 4.19238 5.37207 4.96387C4.90332 5.72559 4.6543 6.92188 4.625 8.55273V13.7383C4.625 15.4766 4.85938 16.7705 5.32812 17.6201C5.80664 18.46 6.56836 18.8799 7.61328 18.8799C8.64844 18.8799 9.39551 18.4746 9.85449 17.6641C10.3135 16.8535 10.5527 15.6133 10.5723 13.9434V8.875ZM21.9834 9.46094H24.2393C25.3135 9.46094 26.1094 9.19238 26.627 8.65527C27.1445 8.11816 27.4033 7.40527 27.4033 6.5166C27.4033 5.65723 27.1445 4.98828 26.627 4.50977C26.1191 4.03125 25.416 3.79199 24.5176 3.79199C23.707 3.79199 23.0283 4.0166 22.4814 4.46582C21.9346 4.90527 21.6611 5.48145 21.6611 6.19434H17.4277C17.4277 5.08105 17.7256 4.08496 18.3213 3.20605C18.9268 2.31738 19.7666 1.62402 20.8408 1.12598C21.9248 0.62793 23.1162 0.378906 24.415 0.378906C26.6709 0.378906 28.4385 0.920898 29.7178 2.00488C30.9971 3.0791 31.6367 4.56348 31.6367 6.45801C31.6367 7.43457 31.3389 8.33301 30.7432 9.15332C30.1475 9.97363 29.3662 10.6035 28.3994 11.043C29.6006 11.4727 30.4941 12.1172 31.0801 12.9766C31.6758 13.8359 31.9736 14.8516 31.9736 16.0234C31.9736 17.918 31.2803 19.4365 29.8936 20.5791C28.5166 21.7217 26.6904 22.293 24.415 22.293C22.2861 22.293 20.543 21.7314 19.1855 20.6084C17.8379 19.4854 17.1641 18.001 17.1641 16.1553H21.3975C21.3975 16.9561 21.6953 17.6104 22.291 18.1182C22.8965 18.626 23.6387 18.8799 24.5176 18.8799C25.5234 18.8799 26.3096 18.6162 26.876 18.0889C27.4521 17.5518 27.7402 16.8438 27.7402 15.9648C27.7402 13.8359 26.5684 12.7715 24.2246 12.7715H21.9834V9.46094Z" fill="#008C44"/>
</svg>
