<svg width="33" height="23" viewBox="0 0 33 23" fill="none" xmlns="http://www.w3.org/2000/svg">
<path d="M14.8057 13.1816C14.8057 16.1309 14.1953 18.3867 12.9746 19.9492C11.7539 21.5117 9.9668 22.293 7.61328 22.293C5.28906 22.293 3.51172 21.5264 2.28125 19.9932C1.05078 18.46 0.420898 16.2627 0.391602 13.4014V9.47559C0.391602 6.49707 1.00684 4.23633 2.2373 2.69336C3.47754 1.15039 5.25977 0.378906 7.58398 0.378906C9.9082 0.378906 11.6855 1.14551 12.916 2.67871C14.1465 4.20215 14.7764 6.39453 14.8057 9.25586V13.1816ZM10.5723 8.875C10.5723 7.10742 10.3281 5.82324 9.83984 5.02246C9.36133 4.21191 8.60938 3.80664 7.58398 3.80664C6.58789 3.80664 5.85059 4.19238 5.37207 4.96387C4.90332 5.72559 4.6543 6.92188 4.625 8.55273V13.7383C4.625 15.4766 4.85938 16.7705 5.32812 17.6201C5.80664 18.46 6.56836 18.8799 7.61328 18.8799C8.64844 18.8799 9.39551 18.4746 9.85449 17.6641C10.3135 16.8535 10.5527 15.6133 10.5723 13.9434V8.875ZM32.2959 22H17.6768V19.0996L24.5762 11.7461C25.5234 10.7109 26.2217 9.80762 26.6709 9.03613C27.1299 8.26465 27.3594 7.53223 27.3594 6.83887C27.3594 5.8916 27.1201 5.14941 26.6416 4.6123C26.1631 4.06543 25.4795 3.79199 24.5908 3.79199C23.6338 3.79199 22.877 4.12402 22.3203 4.78809C21.7734 5.44238 21.5 6.30664 21.5 7.38086H17.252C17.252 6.08203 17.5596 4.89551 18.1748 3.82129C18.7998 2.74707 19.6787 1.90723 20.8115 1.30176C21.9443 0.686523 23.2285 0.378906 24.6641 0.378906C26.8613 0.378906 28.5654 0.90625 29.7764 1.96094C30.9971 3.01562 31.6074 4.50488 31.6074 6.42871C31.6074 7.4834 31.334 8.55762 30.7871 9.65137C30.2402 10.7451 29.3027 12.0195 27.9746 13.4746L23.126 18.5869H32.2959V22Z" fill="#008C44"/>
</svg>
